<!--Scalable Vector Graphic-->
<svg xmlns="http://www.w3.org/2000/svg" 
     xmlns:xlink="http://www.w3.org/1999/xlink"  
     width="300px" 
     height="140px" 
     viewBox="0 0 300px 140px">
	 <g transform="scale(10)">
		 <!--  H  -->
	 	<polygon points="15 1 28 7 29 9 15 3 1 9 2 7 z" fill="#d941f4"></polygon>
		<polyline points="4 9 4 13" stroke="#d941f4" stroke-width="0.25px"></polyline>
		<polyline points="4 11 8 11" stroke="#d941f4" stroke-width="0.25px"></polyline>
		<polyline points="8 9 8 13" stroke="#d941f4" stroke-width="0.25px"></polyline>
		
		 <!--  O  -->
		<circle cx="10" cy="11" r="2" fill="none" stroke="#d941f4" stroke-width="0.25px"></circle>
		
		 <!--  M  -->
		<polyline points="12 13 12 9.25 14 11 16 9.25 16 13"  fill="none" stroke="#d941f4" stroke-width="0.25px"></polyline>
		
		 <!--  E  -->
		<polyline points="16.115 9.1 17 9.1" stroke="#d941f4" stroke-width="0.25px"></polyline>
		<polyline points="16 10.9875 17 10.9875" stroke="#d941f4" stroke-width="0.25px"></polyline>
		<polyline points="16 12.875 17 12.875" stroke="#d941f4" stroke-width="0.25px"></polyline>
		
		 <!--  L  -->
		<polyline points="18 9 18 13" stroke="#d941f4" stroke-width="0.25px"></polyline>
		<polyline points="18 12.875 20 12.875" stroke="#d941f4" stroke-width="0.25px"></polyline>
		
		 <!--  E  -->
		<polyline points="20 9 20 13" stroke="#d941f4" stroke-width="0.25px"></polyline>
		<polyline points="20 9.125 22 9.125" stroke="#d941f4" stroke-width="0.25px"></polyline>
		<polyline points="20 11 22 11" stroke="#d941f4" stroke-width="0.25px"></polyline>
		<polyline points="20 12.875 22 12.875" stroke="#d941f4" stroke-width="0.25px"></polyline>
		
		 <!--  S  -->
		<g transform="translate(22 9) scale(2) scale(0.9803921569 0.9900990099)">
			<path d='M 21.5 6
				C 19 3.5 15.5 3.25 14.5 3.25
				C 10.75 3.25 7.5 6 7.5 10
				C 7.5 14 10.5 16.5 14.5 18'
				fill='none' stroke='#d941f4' stroke-width='2px' transform='scale(0.07142857143 0.06779661017) translate(-7.375 -3.125)' stroke-linejoin='round' stroke-linecap='round' />
			<path d='M 21.5 6
				C 19 3.5 15.5 3.25 14.5 3.25
				C 10.75 3.25 7.5 6 7.5 10
				C 7.5 14 10.5 16.5 14.5 18'
			fill='none' stroke='#d941f4' stroke-width='2px' transform='scale(0.07142857143 0.06779661017) translate(-7.375 -3.125) rotate(180 14.5 18)' stroke-linejoin='round' stroke-linecap='round' />
		</g>
		 
		 <!--  S  -->
		<g transform="translate(24 9) scale(2) scale(0.9803921569 0.9900990099)">
			<path d='M 21.5 6
				C 19 3.5 15.5 3.25 14.5 3.25
				C 10.75 3.25 7.5 6 7.5 10
				C 7.5 14 10.5 16.5 14.5 18'
				fill='none' stroke='#d941f4' stroke-width='2px' transform='scale(0.07142857143 0.06779661017) translate(-7.375 -3.125)' stroke-linejoin='round' stroke-linecap='round' />
			<path d='M 21.5 6
				C 19 3.5 15.5 3.25 14.5 3.25
				C 10.75 3.25 7.5 6 7.5 10
				C 7.5 14 10.5 16.5 14.5 18'
				fill='none' stroke='#d941f4' stroke-width='2px' transform='scale(0.07142857143 0.06779661017) translate(-7.375 -3.125) rotate(180 14.5 18)' stroke-linejoin='round' stroke-linecap='round' />
		</g>
	 </g>
</svg>
